{"title":"Match of the day - 09 Feb 2013 - Premier League MOTD","uid":8125552,"size":847369527,"categoryP":"video","categoryS":"tv_shows","magnet":"?xt=urn:btih:a080aa9898e2f6df362553d2c182dbc41e4090ab&amp;dn=Match+of+the+day+-+09+Feb+2013+-+Premier+League+MOTD&amp;tr=udp%3A%2F%2Ftracker.openbittorrent.com%3A80&amp;tr=udp%3A%2F%2Fopen.demonii.com%3A1337&amp;tr=udp%3A%2F%2Ftracker.coppersurfer.tk%3A6969&amp;tr=udp%3A%2F%2Fexodus.desync.com%3A6969","seeders":2,"leechers":0,"uploader":"IAMH67","files":5,"time":1360494946,"description":"MOTD Aired on 9 Feb 2013\n\n\n\nVideo\n\n\nID                               : 0\nFormat                           : MPEG-4 Visual\nFormat profile                   : Advanced Simple@L5\nFormat settings, BVOP            : Yes\nFormat settings, QPel            : No\nFormat settings, GMC             : No warppoints\nFormat settings, Matrix          : Default (H.263)\nMuxing mode                      : Packed bitstream\nCodec ID                         : XVID\nCodec ID/Hint                    : XviD\nDuration                         : 1h 24mn\nBit rate                         : 1 206 Kbps\nWidth                            : 608 pixels\nHeight                           : 336 pixels\nDisplay aspect ratio             : 16:9\nFrame rate                       : 25.000 fps\nResolution                       : 8 bits\nColorimetry                      : 4:2:0\nScan type                        : Progressive\nBits/(Pixel*Frame)               : 0.236\nStream size                      : 725 MiB (90%)\nWriting library                  : XviD 1.2.1 (UTC 2008-12-04)\n\nAudio\n\n\nID                               : 1\nFormat                           : MPEG Audio\nFormat version                   : Version 1\nFormat profile                   : Layer 3\nMode                             : Joint stereo\nFormat_Settings_ModeExtension    : MS Stereo\nCodec ID                         : 55\nCodec ID/Hint                    : MP3\nDuration                         : 1h 24mn\nBit rate mode                    : Constant\nBit rate                         : 128 Kbps\nChannel(s)                       : 2 channels\nSampling rate                    : 48.0 KHz\nStream size                      : 77.0 MiB (10%)\nAlignment                        : Aligned on interleaves\nInterleave, duration             : 40 ms (1.00 video frame)\nInterleave, preload duration     : 504 ms\n\n\n\nScreens :\n &lt;a href=&quot;\nhttp://i.imgur.com/LJFZXpO.jpg&quot; rel=&quot;nofollow&quot; target=&quot;_NEW&quot;&gt;\nhttp://i.imgur.com/LJFZXpO.jpg&lt;/a&gt;\n &lt;a href=&quot;\nhttp://i.imgur.com/7u9yiza.jpg&quot; rel=&quot;nofollow&quot; target=&quot;_NEW&quot;&gt;\nhttp://i.imgur.com/7u9yiza.jpg&lt;/a&gt;\n &lt;a href=&quot;\nhttp://i.imgur.com/ShvopJV.jpg&quot; rel=&quot;nofollow&quot; target=&quot;_NEW&quot;&gt;\nhttp://i.imgur.com/ShvopJV.jpg&lt;/a&gt;","torrent":{"xt":"urn:btih:a080aa9898e2f6df362553d2c182dbc41e4090ab","amp;dn":"Match+of+the+day+-+09+Feb+2013+-+Premier+League+MOTD","amp;tr":["udp%3A%2F%2Ftracker.openbittorrent.com%3A80","udp%3A%2F%2Fopen.demonii.com%3A1337","udp%3A%2F%2Ftracker.coppersurfer.tk%3A6969","udp%3A%2F%2Fexodus.desync.com%3A6969"],"infoHash":"a080aa9898e2f6df362553d2c182dbc41e4090ab","infoHashBuffer":{"type":"Buffer","data":[160,128,170,152,152,226,246,223,54,37,83,210,193,130,219,196,30,64,144,171]},"announce":[],"urlList":[]}}